# xmcd CD database file
# Copyright (C) 1996 Ti Kan
#
# Track frame offsets:
# 	150
# 	12867
# 	25467
# 	38877
# 	50177
# 	64242
# 	76307
# 	90992
# 	105590
# 	119877
# 	131952
# 	144492
# 	156982
# 	170047
# 	189830
# 	202695
#
# Disc length: 2853 seconds
#
# Revision: 1
# Processed by: cddbd v1.4b41PL1 Copyright (c) Steve Scherf et al.
# Submitted via: DiscPlay 3.4
#
DISCID=e00b2310
DTITLE=Muddy Waters - Got My Mojo Working
DYEAR=1900
DGENRE=
TTITLE0=I Just Want to Make Love to You
TTITLE1=When the Eagle Flies
TTITLE2=Rollin' and Tumblin'
TTITLE3=Crawlin' Kingsnake
TTITLE4=Rollin' Stone
TTITLE5=Flood
TTITLE6=Still a Fool
TTITLE7=Good Morning Little Schoolgirl
TTITLE8=Feel Like Goin' Home
TTITLE9=Find Yourself Another Fool
TTITLE10=Can't Get No Grindin'
TTITLE11=Got My Mojo Working
TTITLE12=Manish Boy
TTITLE13=Young Fashioned Ways
TTITLE14=I'm Your Hoochie Coochie Man
TTITLE15=You Need Love
EXTD=
EXTT0=
EXTT1=
EXTT2=
EXTT3=
EXTT4=
EXTT5=
EXTT6=
EXTT7=
EXTT8=
EXTT9=
EXTT10=
EXTT11=
EXTT12=
EXTT13=
EXTT14=
EXTT15=
PLAYORDER=
